<?xml version="1.0" encoding="utf-8"?>
<!-- Generator: Adobe Illustrator 25.0.1, SVG Export Plug-In . SVG Version: 6.00 Build 0)  -->
<svg version="1.1" id="Layer_1" xmlns="http://www.w3.org/2000/svg" xmlns:xlink="http://www.w3.org/1999/xlink" x="0px" y="0px"
	 viewBox="0 0 512 512" style="enable-background:new 0 0 512 512;" xml:space="preserve">
<style type="text/css">
	.st0{fill:#48CAE4;}
	.st1{fill:#F8FFFB;}
</style>
<g>
	<circle class="st0" cx="257.9" cy="255.3" r="256"/>
</g>
<g>
	<path class="st1" d="M360.5,393.4H163.1v-66.6l126.8-96c16.1-12.2,12.2-29.1,10.6-34.1c-1.5-4.7-8-20.2-27.3-20.8
		c-0.4,0-1.2,0-1.5,0h-22.4c-33,0-35.6,36.2-35.6,47.3h-58.5c0-62.3,38.7-105.8,94.1-105.8h22.8c0,0,1.9,0,2.9,0
		c37.8,1.1,69.7,25.2,81.3,61.4c11.7,36.7-0.5,75.4-31,98.5l-76,57.5h111.3L360.5,393.4L360.5,393.4z"/>
</g>
</svg>
