<?xml version="1.0" encoding="utf-8"?>
<!-- Generator: Adobe Illustrator 25.0.1, SVG Export Plug-In . SVG Version: 6.00 Build 0)  -->
<svg version="1.1" id="Layer_1" xmlns="http://www.w3.org/2000/svg" xmlns:xlink="http://www.w3.org/1999/xlink" x="0px" y="0px"
	 viewBox="0 0 512 512" style="enable-background:new 0 0 512 512;" xml:space="preserve">
<style type="text/css">
	.st0{fill:#48CAE4;}
	.st1{fill:#F8FFFB;}
</style>
<g>
	<g>
		<circle class="st0" cx="256" cy="254.6" r="256"/>
	</g>
</g>
<path class="st1" d="M327,146.2c-16-17.9-42.8-28.6-71.7-28.6c-5.8,0-11.7,0.5-17.4,1.6l-1.8,0.3c-17.5,3.2-33.4,11.3-46,23.3
	c-12.3,11.8-20.5,26.6-23.7,42.8l-1,5l59.2,4.5l1.2-3.1c3.4-8.9,11.7-15.5,21.6-17.3l1.8-0.3c11.2-2.1,22.6,1.7,30,9.8
	c9.7,10.8,8.7,28.1-2.1,37.9c-5.2,4.7-31.1,10.2-39.7,9.8l-4.7-0.2v45.9l4.7-0.2c8.6-0.4,34.4,5.1,39.7,9.8
	c10.8,9.7,11.8,27.1,2.1,37.9c-7.3,8.1-18.8,11.9-30,9.8l-1.8-0.3c-9.9-1.8-18.2-8.5-21.6-17.3l-1.2-3.1l-59.2,4.5l1,5
	c3.2,16.2,11.4,31,23.7,42.8c12.5,12,28.4,20.1,46,23.3l1.8,0.3c5.7,1.1,11.6,1.6,17.4,1.6c28.8,0,55.6-10.7,71.7-28.6
	c27-30.1,25.8-77-2.3-108.4C352.8,223.2,354,176.3,327,146.2L327,146.2z"/>
</svg>
