<?xml version="1.0" encoding="iso-8859-1"?>
<!-- Generator: Adobe Illustrator 19.0.0, SVG Export Plug-In . SVG Version: 6.00 Build 0)  -->
<svg version="1.1" id="Layer_1" xmlns="http://www.w3.org/2000/svg" xmlns:xlink="http://www.w3.org/1999/xlink" x="0px" y="0px"
	 viewBox="0 0 508 508" style="enable-background:new 0 0 508 508;" xml:space="preserve">
<g>
	<g>
		<path d="M451.649,0h-395.2c-7.8,0-14.1,6.3-14.1,14.1V468c0,7.8,6.3,14.1,14.1,14.1h27.7v11.8c0,7.8,6.3,14.1,14.1,14.1
			s14.1-6.3,14.1-14.1v-11.8h283.3v11.8c0,7.8,6.3,14.1,14.1,14.1c7.8,0,14.1-6.3,14.1-14.1v-11.8h27.7c7.8,0,14.1-6.3,14.1-14.1
			V14.1C465.749,6.3,459.349,0,451.649,0z M437.549,453.9h-0.1h-366.8V255.2h366.9V453.9z M437.549,227h-0.1h-366.8V28.2h366.9V227z
			"/>
	</g>
</g>
<g>
	<g>
		<path d="M281.349,113.5h-54.6c-7.8,0-14.1,6.3-14.1,14.1s6.3,14.1,14.1,14.1h54.6c7.8,0,14.1-6.3,14.1-14.1
			S289.149,113.5,281.349,113.5z"/>
	</g>
</g>
<g>
	<g>
		<path d="M281.349,340.5h-54.6c-7.8,0-14.1,6.3-14.1,14.1c0,7.7,6.3,14.1,14.1,14.1h54.6c7.8,0,14.1-6.3,14.1-14.1
			C295.449,346.8,289.149,340.5,281.349,340.5z"/>
	</g>
</g>
<g>
</g>
<g>
</g>
<g>
</g>
<g>
</g>
<g>
</g>
<g>
</g>
<g>
</g>
<g>
</g>
<g>
</g>
<g>
</g>
<g>
</g>
<g>
</g>
<g>
</g>
<g>
</g>
<g>
</g>
</svg>
