<svg id="_x31__px" enable-background="new 0 0 24 24" height="512" viewBox="0 0 24 24" width="512" xmlns="http://www.w3.org/2000/svg"><g id="XMLID_1_"><path d="m20 11c.28 0 .5.22.5.5s-.22.5-.5.5z"/><path d="m4 11h16v1h-16z"/><path d="m17 22v1.5c0 .28-.22.5-.5.5s-.5-.22-.5-.5v-1.5z"/><path d="m17 21.5v.5h-1v-.5c0-.28.22-.5.5-.5s.5.22.5.5z"/><path d="m7.5 21h9c-.28 0-.5.22-.5.5v.5h-8v-.5c0-.28-.22-.5-.5-.5z"/><path d="m14 6.5c0-.28.22-.5.5-.5s.5.22.5.5v1c0 .28-.22.5-.5.5h-5c-.28 0-.5-.22-.5-.5v-1c0-.28.22-.5.5-.5s.5.22.5.5v.5h4z"/><path d="m14 16.5c0-.28.22-.5.5-.5s.5.22.5.5v1c0 .28-.22.5-.5.5h-5c-.28 0-.5-.22-.5-.5v-1c0-.28.22-.5.5-.5s.5.22.5.5v.5h4z"/><path d="m8 22v1.5c0 .28-.22.5-.5.5s-.5-.22-.5-.5v-1.5z"/><path d="m8 21.5v.5h-1v-.5c0-.28.22-.5.5-.5s.5.22.5.5z"/><path d="m4 11v1c-.28 0-.5-.22-.5-.5s.22-.5.5-.5z"/><path d="m19.5 1h-15c-.28 0-.5.22-.5.5v9.5c-.28 0-.5.22-.5.5s.22.5.5.5v8.5c0 .28.22.5.5.5h3c-.28 0-.5.22-.5.5v.5h-2.5c-.83 0-1.5-.67-1.5-1.5v-19c0-.83.67-1.5 1.5-1.5h15c.83 0 1.5.67 1.5 1.5v19c0 .83-.67 1.5-1.5 1.5h-2.5v-.5c0-.28-.22-.5-.5-.5h3c.28 0 .5-.22.5-.5v-8.5c.28 0 .5-.22.5-.5s-.22-.5-.5-.5v-9.5c0-.28-.22-.5-.5-.5z"/></g></svg>