<svg height="512pt" viewBox="-6 0 512 512" width="512pt" xmlns="http://www.w3.org/2000/svg"><path d="m500.757812 261.671875c-.027343 140.0625-112.695312 251.617187-252.753906 250.316406-20.851562-.195312-41.089844-2.9375-60.425781-7.933593-6.773437-1.75-11.53125-7.820313-11.53125-14.816407 0-15.519531-12.578125-28.097656-28.097656-28.097656h-38.230469c-7.050781 0-13.90625-2.429687-19.332031-6.9375-55.996094-46.570313-91.367188-117.085937-90.3671878-195.84375 1.7578128-137.96875 115.9101568-248.996094 253.8789068-247.09375 136.675781 1.882813 246.886718 113.277344 246.859374 250.40625zm0 0" fill="#0ed1b2"/><path d="m360.386719 333.996094c8.101562 0 14.671875 6.566406 14.671875 14.667968 0 8.105469-6.570313 14.671876-14.671875 14.671876 8.101562 0 14.671875 6.566406 14.671875 14.671874 0 8.101563-6.570313 14.667969-14.671875 14.667969h-145.214844c-16.207031 0-29.34375-13.136719-29.34375-29.339843 0-16.203126 13.136719-29.34375 29.34375-29.34375-16.207031 0-29.34375-13.136719-29.34375-29.339844 0-16.207032 13.136719-29.339844 29.34375-29.339844h145.214844c8.101562 0 14.671875 6.566406 14.671875 14.667969 0 8.101562-6.570313 14.671875-14.671875 14.671875 8.101562 0 14.671875 6.566406 14.671875 14.667968 0 8.101563-6.570313 14.675782-14.671875 14.675782zm0 0" fill="#fff5f5"/><path d="m360.386719 304.65625c6.386719 0 11.804687 4.085938 13.820312 9.777344h-139.476562c-5.402344 0-9.78125-4.378906-9.78125-9.777344 0-5.402344 4.378906-9.78125 9.78125-9.78125h139.472656c-2.011719 5.695312-7.429687 9.78125-13.816406 9.78125zm0 58.679688c8.101562 0 14.671875-6.566407 14.671875-14.667969 0-8.101563-6.570313-14.671875-14.671875-14.671875h-115.875c-16.207031 0-29.339844-13.136719-29.339844-29.339844 0-16.207031 13.132813-29.34375 29.339844-29.34375h-29.339844c-16.207031 0-29.34375 13.136719-29.34375 29.34375 0 16.203125 13.136719 29.339844 29.34375 29.339844-16.207031 0-29.34375 13.136718-29.34375 29.34375 0 16.203125 13.136719 29.339844 29.34375 29.339844h145.21875c8.101563 0 14.667969-6.566407 14.667969-14.671876 0-8.101562-6.570313-14.671874-14.671875-14.671874zm0 0" fill="#f9eecf"/><path d="m360.386719 363.335938c6.386719 0 11.804687 4.089843 13.820312 9.78125h-139.476562c-5.402344 0-9.78125-4.378907-9.78125-9.78125 0-5.402344 4.378906-9.777344 9.78125-9.777344h139.472656c-2.011719 5.691406-7.429687 9.777344-13.816406 9.777344zm0 0" fill="#f5dc90"/><path d="m297.070312 117.71875v111.117188h-97.789062v-111.117188c0-6.746094 4.019531-12.839844 10.21875-15.5l14.179688-6.074219c3.097656-1.328125 5.109374-4.378906 5.109374-7.75v-11.300781h38.777344v11.300781c0 3.375 2.011719 6.421875 5.109375 7.75l14.175781 6.078125c6.199219 2.65625 10.21875 8.75 10.21875 15.496094zm0 0" fill="#fff5f5"/><path d="m220.539062 228.835938h-21.257812v-111.117188c0-6.746094 4.019531-12.839844 10.21875-15.5l14.179688-6.074219c3.097656-1.328125 5.109374-4.378906 5.109374-7.75v-11.300781h21.257813v21.933594c0 3.371094-2.011719 6.417968-5.109375 7.746094l-14.179688 6.074218c-6.199218 2.660156-10.21875 8.753906-10.21875 15.5zm0 0" fill="#f9eecf"/><path d="m271.359375 69.765625v10.445313c0 2.933593-2.378906 5.3125-5.316406 5.3125h-35.734375c-2.933594 0-5.3125-2.378907-5.3125-5.3125v-10.445313c0-2.9375 2.378906-5.316406 5.3125-5.316406h2.695312v-7.328125c0-2.9375 2.378906-5.316406 5.3125-5.316406h19.722656c2.933594 0 5.3125 2.378906 5.3125 5.316406v7.328125h2.695313c2.933594 0 5.3125 2.378906 5.3125 5.316406zm0 0" fill="#fd3980"/><path d="m243.265625 85.523438h-12.957031c-2.933594 0-5.3125-2.378907-5.3125-5.3125v-10.445313c0-2.9375 2.378906-5.316406 5.3125-5.316406h2.695312v-7.328125c0-2.9375 2.378906-5.316406 5.3125-5.316406h12.957032c-2.933594 0-5.3125 2.378906-5.3125 5.316406v4.632812c0 1.488282-1.207032 2.695313-2.695313 2.695313-2.933594 0-5.3125 2.378906-5.3125 5.316406v10.445313c-.003906 2.933593 2.375 5.3125 5.3125 5.3125zm0 0" fill="#e30048"/><path d="m355.582031 130.15625 14.179688 6.078125c6.199219 2.65625 10.21875 8.75 10.21875 15.496094v79.230469h-97.789063v-79.230469c0-6.746094 4.019532-12.839844 10.21875-15.496094l14.175782-6.074219c3.101562-1.332031 5.109374-4.378906 5.109374-7.75v-11.300781h38.78125v11.300781c-.003906 3.371094 2.007813 6.417969 5.105469 7.746094zm0 0" fill="#ade8f0"/><path d="m305.574219 230.960938h-23.382813v-79.230469c0-6.746094 4.019532-12.839844 10.21875-15.496094l14.175782-6.074219c3.101562-1.332031 5.109374-4.378906 5.109374-7.75v-11.300781h23.386719v22.0625c0 3.375-2.011719 6.421875-5.113281 7.75l-14.175781 6.078125c-6.199219 2.65625-10.21875 8.75-10.21875 15.496094zm0 0" fill="#84deea"/><path d="m354.269531 87.261719v27.167969c0 2.820312-2.289062 5.109374-5.113281 5.109374h-36.144531c-2.820313 0-5.109375-2.289062-5.109375-5.109374v-27.167969c0-2.820313 2.289062-5.109375 5.109375-5.109375h36.144531c2.824219 0 5.113281 2.289062 5.113281 5.109375zm0 0" fill="#024c67"/><path d="m354.269531 87.261719v27.167969c0 2.820312-2.289062 5.109374-5.113281 5.109374h-17.214844c-2.820312 0-5.109375-2.289062-5.109375-5.109374v-27.167969c0-2.820313 2.289063-5.109375 5.109375-5.109375h17.214844c2.824219 0 5.113281 2.289062 5.113281 5.109375zm0 0" fill="#017296"/><path d="m432.785156 363.335938v80.203124h-286.078125v-80.203124zm0 0" fill="#fd0464"/><path d="m432.785156 363.335938v39.121093h-207.835937c-21.605469 0-39.121094-17.515625-39.121094-39.121093zm0 0" fill="#fd3980"/><path d="m156.488281 46.945312c0 .671876-.070312 1.324219-.195312 1.957032h.195312v244.511718h-58.683593c-32.410157 0-58.683594-26.273437-58.683594-58.683593v-178.003907c-5.402344 0-9.777344-4.378906-9.777344-9.78125v-37.164062c0-5.402344 4.378906-9.78125 9.777344-9.78125h107.585937c5.402344 0 9.78125 4.378906 9.78125 9.78125zm0 0" fill="#017296"/><path d="m136.925781 293.414062h-39.121093c-32.410157 0-58.683594-26.273437-58.683594-58.683593v-178.003907c-5.402344 0-9.777344-4.378906-9.777344-9.78125v-37.164062c0-5.402344 4.378906-9.78125 9.777344-9.78125h39.121094c-5.398438 0-9.777344 4.378906-9.777344 9.78125v37.164062c0 5.402344 4.378906 9.78125 9.777344 9.78125v178.003907c0 32.410156 26.273437 58.683593 58.683593 58.683593zm0 0" fill="#024c67"/><path d="m448.433594 111v332.539062h-39.121094v-199.292968h-243.046875v179.730468h238.15625v39.121094h-286.078125v-39.121094h8.800781v-365.726562h-107.582031c-10.804688 0-19.5625-8.757812-19.5625-19.558594 0-10.804687 8.757812-19.5625 19.5625-19.5625h136.925781c5.398438 0 9.777344 4.378906 9.777344 9.78125v176.214844h243.046875v-94.125c0-10.800781 8.757812-19.558594 19.558594-19.558594 10.804687 0 19.5625 8.757813 19.5625 19.558594zm0 0" fill="#fdf385"/><path d="m423.003906 452.339844c0 5.941406-4.816406 10.757812-10.757812 10.757812h-235.21875c-5.941406 0-10.757813-4.816406-10.757813-10.757812s4.816407-10.757813 10.757813-10.757813h235.21875c5.941406 0 10.757812 4.816407 10.757812 10.757813zm-283.144531-415.605469h-97.1875c-11.269531 0-11.96875-16.964844-.71875-17.574219.359375-.019531.71875-.03125 1.082031-.03125h-23.003906c-10.609375 0-19.640625 8.25-20.0195312 18.847656-.3945308 11.128907 8.5117192 20.273438 19.5507812 20.273438h107.585938v365.726562h23.472656v-377.460937h-.050782c-.496093-5.484375-5.097656-9.78125-10.710937-9.78125zm289.011719 54.707031c-10.800782 0-19.558594 8.757813-19.558594 19.558594v111.730469h-232.285156c-5.941406 0-10.757813 4.816406-10.757813 10.757812 0 5.941407 4.816407 10.757813 10.757813 10.757813h232.285156v179.730468h18.582031v19.558594h4.890625v-332.535156c0-6.390625 3.082032-12.050781 7.824219-15.621094-3.273437-2.460937-7.328125-3.9375-11.738281-3.9375zm0 0" fill="#fded32"/><path d="m224.949219 443.539062c0 26.363282-14.914063 49.234376-36.753907 60.671876-37.222656-9.511719-71.097656-27.375-99.535156-51.464844-.40625-3.011719-.636718-6.082032-.636718-9.210938 0-37.808594 30.652343-68.460937 68.464843-68.460937 37.808594 0 68.460938 30.652343 68.460938 68.464843zm201.480469-68.464843c-37.8125 0-68.464844 30.652343-68.464844 68.460937 0 37.8125 30.652344 68.464844 68.464844 68.464844 37.808593 0 68.460937-30.652344 68.460937-68.464844 0-37.808594-30.652344-68.460937-68.460937-68.460937zm0 0" fill="#017296"/><path d="m156.488281 375.074219c5.039063 0 9.941407.558593 14.667969 1.589843-30.757812 6.71875-53.792969 34.097657-53.792969 66.871094 0 13.421875 3.867188 25.933594 10.542969 36.496094-13.96875-7.847656-27.105469-16.996094-39.25-27.285156-.402344-3.011719-.632812-6.082032-.632812-9.210938 0-37.808594 30.652343-68.460937 68.464843-68.460937zm230.816407 68.464843c0-32.773437 23.035156-60.152343 53.792968-66.871093-4.726562-1.035157-9.632812-1.59375-14.667968-1.59375-37.8125 0-68.464844 30.652343-68.464844 68.464843 0 37.808594 30.652344 68.460938 68.464844 68.460938 5.035156 0 9.941406-.558594 14.667968-1.59375-30.757812-6.71875-53.792968-34.097656-53.792968-66.867188zm0 0" fill="#024c67"/><path d="m185.828125 443.539062c0 16.203126-13.136719 29.339844-29.339844 29.339844-16.207031 0-29.34375-13.136718-29.34375-29.339844 0-16.207031 13.136719-29.34375 29.34375-29.34375 16.203125 0 29.339844 13.136719 29.339844 29.34375zm240.601563-29.34375c-16.207032 0-29.34375 13.136719-29.34375 29.34375 0 16.203126 13.136718 29.339844 29.34375 29.339844 16.203124 0 29.339843-13.136718 29.339843-29.339844 0-16.207031-13.136719-29.34375-29.339843-29.34375zm0 0" fill="#d3f1f5"/><path d="m146.707031 443.539062c0 12.773438 8.167969 23.636719 19.5625 27.664063-3.0625 1.082031-6.351562 1.675781-9.78125 1.675781-16.203125 0-29.339843-13.136718-29.339843-29.339844 0-16.207031 13.136718-29.34375 29.339843-29.34375 3.429688 0 6.71875.59375 9.78125 1.675782-11.398437 4.027344-19.5625 14.890625-19.5625 27.667968zm269.941407 0c0-12.777343 8.164062-23.640624 19.558593-27.667968-3.058593-1.082032-6.347656-1.675782-9.777343-1.675782-16.207032 0-29.34375 13.136719-29.34375 29.34375 0 16.203126 13.136718 29.339844 29.34375 29.339844 3.429687 0 6.71875-.59375 9.777343-1.675781-11.394531-4.03125-19.558593-14.890625-19.558593-27.664063zm0 0" fill="#ade8f0"/></svg>