<svg height="512" viewBox="0 0 512 512" width="512" xmlns="http://www.w3.org/2000/svg"><g id="Flat"><path d="m144 464h32v24h-32z" fill="#2f4054"/><path d="m336 464h32v24h-32z" fill="#2f4054"/><rect fill="#8acce7" height="440" rx="16" width="304" x="104" y="24"/><path d="m264 296v-272h-16v272h-144v16h304v-16z" fill="#379ec3"/><rect fill="#c4d4e0" height="192" rx="12" width="24" x="280" y="72"/><rect fill="#c4d4e0" height="192" rx="12" width="24" x="208" y="72"/><path d="m128 120h56v88h-56z" fill="#379ec3"/><path d="m168 136v24a7.9979 7.9979 0 0 1 -8 8h-8a7.9979 7.9979 0 0 1 -8-8v-24z" fill="#c4d4e0"/><path d="m176 120-8 16h-24l-8-16z" fill="#a6b2bc"/><rect fill="#c4d4e0" height="24" rx="12" width="192" x="160" y="328"/></g></svg>