<svg id="Layer_1" enable-background="new 0 0 512 512" height="512" viewBox="0 0 512 512" width="512" xmlns="http://www.w3.org/2000/svg"><g><path d="m181.179 500.347 199.133-22.202c3.399-2.005 6.744-4.09 10.035-6.252l49.941-43.466c37.795-43.112 60.714-99.591 60.714-161.429 0-135.311-109.691-245.002-245.002-245.002s-245.002 109.691-245.002 245.002c0 109.214 71.467 201.723 170.181 233.349z" fill="#9181f2"/><path d="m185.981 330.91c-14.874-2.358-29.042-5.256-42.334-8.639-2.896-.737-5.411-2.239-7.387-4.228l-11.579 66.345c-.368 1.427-1.06 2.781-2.001 3.916l-8.317 7.306v71.065l47.473-46.217c4.841-4.789 8.406-10.779 10.31-17.319l17.081-70.15c-.73-1.079-1.879-1.862-3.246-2.079z" fill="#fcad6d"/><path d="m176.53 385.131 12.696-52.142c-.729-1.079-1.878-1.862-3.245-2.079-14.874-2.358-29.042-5.256-42.334-8.639-2.896-.737-5.411-2.239-7.387-4.228l-6.374 36.523c-.001 0 39.825-5.542 46.644 30.565z" fill="#fd995b"/><path d="m425.537 313.497c-2.114 3.255-5.425 5.748-9.457 6.774-13.292 3.383-27.46 6.281-42.334 8.639-1.651.262-2.987 1.345-3.64 2.788l17.862 116.784c.383 2.508.691 5.027.923 7.553l1.455 15.858c18.556-12.192 35.357-26.831 49.942-43.467z" fill="#fcad6d"/><path d="m425.537 313.497c-2.114 3.255-5.425 5.748-9.457 6.774-13.292 3.383-27.46 6.281-42.334 8.639-1.651.262-2.987 1.345-3.64 2.788l8.383 54.811c9.691-10.249 28.194-23.634 54.394-15.776z" fill="#fd995b"/><path d="m176.584 36.642h-142.926c-9.51 0-16.182 9.378-13.064 18.363l20.044 57.746c.874-.36 1.83-.57 2.845-.57h123.275c1.015 0 1.97.21 2.845.57l20.044-57.746c3.119-8.985-3.553-18.363-13.063-18.363z" fill="#9bd8f9"/><path d="m105.121 36.642h-71.463c-9.51 0-16.182 9.378-13.063 18.363l20.044 57.746c.874-.36 1.83-.57 2.845-.57h59.845c.028-1.086-.404-2.172-1.253-2.935-3.082-2.766-4.095-7.034-4.095-7.034s-4.535-30.564-6.907-46.231 14.047-19.339 14.047-19.339z" fill="#73c3f9"/><path d="m91.074 395.863c6.239.322 11.246 5.51 11.246 11.825v32.629c0 5.039-3.192 9.352-7.65 11.056 7.752 6.789 15.929 13.104 24.499 18.884v-247.977h-28.095z" fill="#e9efff"/><path d="m105.121 286.152c6.188 0 11.519 3.608 14.047 8.826v-72.698h-28.094v72.699c2.528-5.219 7.86-8.827 14.047-8.827z" fill="#bec8f7"/><path d="m105.121 191.097h-4.386c-3.642 0-7.107-1.391-9.662-3.785v37.091h28.095v-37.091c-2.555 2.394-6.02 3.785-9.662 3.785z" fill="#ffdd40"/><path d="m166.759 111.071h-123.275c-4.743 0-8.315 4.37-7.315 9.006 5.685 26.332 34.389 48.725 45.304 56.418 2.864 2.018 5.059 4.838 6.323 8.109 2.039 5.276 7.283 8.617 12.939 8.617h4.386 4.386c5.656 0 10.901-3.341 12.939-8.617 1.264-3.271 3.459-6.091 6.323-8.109 10.915-7.692 39.619-30.086 45.304-56.418 1.001-4.636-2.572-9.006-7.314-9.006z" fill="#ffdd40"/><path d="m36.169 120.077c5.685 26.332 34.389 48.725 45.304 56.418 2.864 2.018 5.059 4.838 6.323 8.109 2.038 5.276 7.283 8.617 12.939 8.617h4.386 4.386c5.657 0 10.901-3.341 12.939-8.617.731-1.892 1.782-3.625 3.085-5.148-24.831-6.358-20.41-30.279-20.41-30.279v-15.926c-7.652-7.652-4.919-15.133-2.372-19.151.586-.923.711-2.027.437-3.03h-59.702c-4.743.001-8.315 4.371-7.315 9.007z" fill="#ffb332"/><g><path d="m119.169 149.177h-28.095c-4.398 0-7.963-3.565-7.963-7.963s3.565-7.963 7.963-7.963h28.095c4.398 0 7.963 3.565 7.963 7.963 0 4.399-3.566 7.963-7.963 7.963z" fill="#ffe98d"/></g><path d="m89.961 465.025h-17.688c-8.338 0-15.161-6.822-15.161-15.161v-41.723c0-8.338 6.822-15.161 15.161-15.161h17.688c8.338 0 15.161 6.822 15.161 15.161v41.723c-.001 8.339-6.823 15.161-15.161 15.161z" fill="#f9ba8f"/><path d="m89.961 429.002h-17.688c-8.339 0-15.161-6.822-15.161-15.161v36.022c0 8.338 6.822 15.16 15.161 15.16h17.687c8.338 0 15.161-6.822 15.161-15.16v-36.022c0 8.339-6.822 15.161-15.16 15.161z" fill="#fcad6d"/><path d="m428.783 305.035c-1.035-5.333-2.85-12.671-2.855-23.748-.009-21.163-5.133-69.198-51.056-72.952-4.343-.355-6.653-2.04-11.771-4.925-7.205-4.063-14.479-7.53-22.015-10.374 1.372 1.762 1.936 4.039 1.543 6.256-3.828 21.587-22.143 36.635-32.72 43.683-3.666 2.444-8.684-1.354-11.181-4.97-.113-.114-.421-.903-1.336-.838-.445.036-.836.308-1.025.711-1.241 2.631-2.216 8.105-2.985 10.653l-2.594 15.54c-3.763 0-15.037 0-19.009 0l-2.594-15.54c-.769-2.549-1.744-8.022-2.985-10.653-.19-.403-.581-.675-1.025-.711-.915-.066-1.224.724-1.336.838-2.497 3.616-10.355 7.414-14.021 4.97-10.577-7.048-26.053-23.515-29.88-45.103-.393-2.216.171-4.494 1.543-6.256-7.536 2.843-17.65 7.73-24.855 11.794-5.118 2.885-7.428 4.57-11.771 4.925-45.923 3.754-51.047 51.789-51.056 72.952-.005 11.077-1.82 18.416-2.855 23.748-1.592 8.204 3.604 16.174 11.703 18.236 13.292 3.383 27.46 6.281 42.334 8.639 2.34.371 4.077 2.376 4.077 4.745v90.74h90.805 90.805v-90.74c0-2.37 1.737-4.374 4.077-4.745 14.874-2.358 29.043-5.256 42.334-8.639 8.1-2.062 13.296-10.032 11.704-18.236z" fill="#73c3f9"/><path d="m272.405 224.396c.342.219.55.595.559 1.007.008.387.195.75.508.979 1.115.818 3.365 2.653 5.914 5.754.498.606 1.426.606 1.923.001 2.555-3.106 4.799-4.937 5.908-5.752.312-.23.5-.592.508-.981.007-.412.216-.789.559-1.008 1.689-1.759 36.316-18.482 31.181-40.582-4.078-6.813-5.257-16.475-5.503-23.613-3.396 3.955-6.96 7.263-10.365 9.908-6.634 5.152-14.822 7.95-23.253 7.95-8.432 0-16.619-2.798-23.253-7.95-3.405-2.644-6.969-5.953-10.365-9.908-.246 7.14-1.426 16.807-5.508 23.62-5.186 22.178 29.331 38.641 31.187 40.575z" fill="#fcad6d"/><path d="m246.726 160.201c-.245 7.14-1.426 16.807-5.507 23.62-4.201 17.962 17.637 32.172 27.08 37.954l1.078-.795c13.484-13.484 10.968-42.921 10.968-42.921-8.432 0-16.619-2.798-23.253-7.95-3.406-2.645-6.97-5.953-10.366-9.908z" fill="#fd995b"/><path d="m288.565 226.822c-.413-.598-.518-1.31-.364-1.963h-.978s-3.431 2.122-7.36 7.071c5.044 6.353 10.901 17.381 11.402 34.621.334-11.495 3.053-20.23 6.322-26.659z" fill="#1e9ef4"/><path d="m273.45 224.859h-.978c.154.653.049 1.365-.364 1.963l-9.022 13.07c3.495 6.866 6.365 16.351 6.365 29.037v17.076c0 2.938 2.382 5.32 5.32 5.32h12.164c2.938 0 5.32-2.382 5.32-5.32v-17.076c-.001-32.49-18.805-44.07-18.805-44.07z" fill="#4fabf7"/><path d="m273.076 223.346-9.746-6.233c-22.542-15.259-22.945-28.135-20.106-35.621 1.057-2.789-1.673-5.489-4.421-4.328-9.77 4.126-16.302 11.074-19.525 15.169-1.614 2.05-2.267 4.699-1.811 7.268 3.898 21.99 22.402 37.248 33.222 44.457 4.251 2.833 9.982 1.748 12.885-2.456l10.203-14.781c.791-1.147.474-2.723-.701-3.475z" fill="#9bd8f9"/><path d="m341.411 192.334c-3.222-4.095-9.754-11.042-19.524-15.169-2.748-1.161-5.479 1.539-4.421 4.328 2.839 7.486 2.435 20.362-20.107 35.621l-9.746 6.233c-1.175.751-1.492 2.327-.7 3.475l10.203 14.781c2.902 4.204 8.633 5.289 12.885 2.456 10.82-7.209 29.324-22.467 33.222-44.457.455-2.569-.198-5.218-1.812-7.268z" fill="#9bd8f9"/><path d="m269.101.701c-33.764 4.6-36.973 23.743-36.988 30.767-.003 1.473-.819 2.838-2.144 3.482-17.563 8.544-8.093 49.72-8.093 49.72 1.764.118 3.61.832 4.986 1.499.337-2.098.888-4.164 1.665-6.161.592-1.522 1.333-3.059 2.258-4.511 1.606-2.52 2.338-5.492 2.119-8.464-.631-8.59-.327-25.517 11.012-30.619 9.606-4.323 21.39-1.819 28.904.679 4.88 1.623 10.167 1.623 15.047 0 7.515-2.499 19.298-5.002 28.904-.679 11.307 5.087 11.641 21.933 11.017 30.546-.217 2.994.495 5.998 2.113 8.537.956 1.499 1.714 3.088 2.316 4.658.748 1.951 1.28 3.967 1.609 6.014 1.735-.841 4.216-1.757 6.338-1.457.26-9.004 1.091-18.71 1.091-18.71 10.007-49.004-35.8-70.254-72.154-65.301z" fill="#2a428c"/><path d="m291.486.883c-7.492-1.112-15.126-1.171-22.385-.182-33.764 4.6-36.973 23.743-36.988 30.767-.003 1.473-.819 2.838-2.144 3.482-17.563 8.544-8.094 49.72-8.094 49.72 1.764.118 3.61.832 4.987 1.499.337-2.098.888-4.164 1.665-6.161.592-1.522 1.333-3.059 2.258-4.511 1.606-2.52 2.338-5.492 2.119-8.464-.631-8.59-.327-25.517 11.012-30.619 9.606-4.323 21.39-1.82 28.904.679 1.074.357 2.17.622 3.274.822-.068-.115-.129-.233-.2-.347-14.719-23.561 15.581-36.68 15.592-36.685z" fill="#1c2e7a"/><path d="m343.96 85.882c-2.63-2.41-7.868-1.188-10.133.287.496 3.09.525 6.251.096 9.372l-2.673 19.466c0 1.569-.049 3.109-.14 4.621 6.517 1.966 9.754-3.885 10.3-7.9.235-1.728.619-3.432 1.151-5.094 1.733-5.415 7.987-14.714 1.399-20.752z" fill="#fcad6d"/><path d="m216.729 85.882c2.63-2.41 7.868-1.188 10.133.287-.496 3.09-.524 6.251-.096 9.372l2.673 19.466c0 1.569.05 3.109.14 4.621-6.517 1.966-9.755-3.885-10.3-7.9-.235-1.728-.619-3.432-1.151-5.094-1.733-5.415-7.987-14.714-1.399-20.752z" fill="#fd995b"/><path d="m332.496 80.048c-1.901-4.96-4.848-7.014-4.41-13.067 1.576-21.741-6.336-28.654-11.192-30.838-9.521-4.284-21.09-2.002-29.119.668-4.791 1.594-10.07 1.594-14.861 0-8.029-2.669-19.596-4.952-29.119-.668-4.865 2.189-12.788 9.116-11.187 30.913.437 5.93-2.466 7.983-4.358 12.844-1.901 4.886-2.517 10.307-1.779 15.677l2.671 19.43c0 32.096 19.418 50.639 27.767 57.121 13.696 10.637 33.076 10.714 46.871 0 8.349-6.483 27.767-25.027 27.764-57.08l2.673-19.466c.731-5.318.135-10.689-1.721-15.534z" fill="#f9ba8f"/><g><path d="m291.485 172.129c-8.349-6.482-27.768-25.026-27.768-57.121l-2.671-19.43c-.738-5.371-.122-10.792 1.779-15.677 1.891-4.861 4.794-6.914 4.358-12.844-1.349-18.367 4.064-26.175 8.711-29.487-1.007-.192-2.006-.433-2.982-.758-8.029-2.669-19.596-4.952-29.119-.668-4.865 2.189-12.788 9.116-11.187 30.913.437 5.93-2.466 7.983-4.358 12.844-1.901 4.886-2.516 10.307-1.779 15.677l2.671 19.43c0 32.096 19.418 50.639 27.767 57.121 11.765 9.137 27.716 10.458 40.726 3.865-2.138-1.084-4.205-2.356-6.148-3.865z" fill="#fcad6d"/></g><path d="m374.745 331.91c8.205-1.301 16.186-2.771 23.932-4.391-.899-21.671-9.334-38.001-16.721-48.276-3.534-4.917-11.289-2.426-11.289 3.629v53.783c.001-2.37 1.738-4.374 4.078-4.745z" fill="#4fabf7"/><path d="m256 512c45.379 0 87.867-12.352 124.312-33.855-1.293-52.75-3.469-106.283-4.477-129.764-.288-6.713-3.477-13.034-8.892-17.013-15.285-11.23-21.813-32.238-24.283-43.221-.936-4.163-4.657-7.101-8.924-7.101-11.893 0-93.598 0-105.491 0-4.267 0-7.988 2.938-8.924 7.101-2.469 10.983-8.998 31.99-24.282 43.221-5.415 3.979-8.604 10.3-8.893 17.013-1.15 26.795-3.822 92.724-4.966 151.966 23.586 7.557 48.723 11.653 74.82 11.653z" fill="#ff7186"/><path d="m277.23 408.228v-34.636c0-2.495-.886-4.902-2.449-6.846-7.288-9.07-4.951-17.002-1.914-21.898 2.173-3.503 1.967-7.936-.222-11.429-12.035-19.213-4.965-37.141.354-46.161 1.125-1.909 1.591-4.082 1.438-6.211-21.072 0-40.803 0-46.193 0-4.267 0-7.988 2.938-8.924 7.101-2.469 10.982-8.998 31.99-24.282 43.221-5.415 3.978-8.604 10.299-8.893 17.013-1.15 26.795-3.822 92.723-4.966 151.966 23.587 7.556 48.724 11.652 74.821 11.652 8.436 0 16.773-.427 24.99-1.259v-31.392c0-11.111 3.812-20.121 7.104-25.831 2.213-3.838 1.733-8.614-1.005-12.098-9.655-12.288-9.859-33.192-9.859-33.192z" fill="#ff4155"/><g><path d="m236.253 296.204c-5.549 0-10.047-4.498-10.047-10.047v-106.641c0-5.55 4.498-10.047 10.047-10.047s10.048 4.498 10.048 10.047v106.641c0 5.55-4.499 10.047-10.048 10.047z" fill="#ff7186"/></g><g><path d="m325.061 296.204c-5.549 0-10.048-4.498-10.048-10.047v-106.641c0-5.55 4.498-10.047 10.048-10.047 5.549 0 10.047 4.498 10.047 10.047v106.641c.001 5.55-4.498 10.047-10.047 10.047z" fill="#ff7186"/></g><path d="m236.253 245.82c-5.549 0-10.048-4.498-10.048-10.048v50.385c0 5.55 4.499 10.048 10.048 10.048s10.048-4.498 10.048-10.048v-50.385c0 5.55-4.499 10.048-10.048 10.048z" fill="#ff4155"/><path d="m325.061 245.82c-5.549 0-10.048-4.498-10.048-10.048v50.385c0 5.55 4.499 10.048 10.048 10.048s10.048-4.498 10.048-10.048v-50.385c0 5.55-4.499 10.048-10.048 10.048z" fill="#ff4155"/><path d="m327.689 368.124h-94.063v33.177c0 25.975 21.057 47.032 47.031 47.032 25.975 0 47.031-21.057 47.031-47.032v-33.177z" fill="#e80054"/><path d="m233.626 401.3c0 25.975 21.057 47.032 47.031 47.032 3.006 0 5.943-.294 8.792-.833-.158-2.166-.957-4.292-2.361-6.079-9.655-12.288-9.858-33.192-9.858-33.192v-34.636c0-1.935-.538-3.814-1.507-5.469h-42.097z" fill="#cc0053"/><path d="m327.689 369.463h-94.063v-20.007c0-5.406 4.382-9.788 9.788-9.788h74.487c5.406 0 9.788 4.382 9.788 9.788z" fill="#ff4155"/><path d="m274.781 366.746c-7.288-9.07-4.951-17.002-1.914-21.898.988-1.593 1.46-3.379 1.502-5.18h-30.955c-5.406 0-9.788 4.382-9.788 9.788v20.008h42.762c-.404-.97-.939-1.888-1.607-2.718z" fill="#e80054"/></g></svg>