<?xml version="1.0" encoding="iso-8859-1"?>
<!-- Generator: Adobe Illustrator 19.0.0, SVG Export Plug-In . SVG Version: 6.00 Build 0)  -->
<svg version="1.1" id="Capa_1" xmlns="http://www.w3.org/2000/svg" xmlns:xlink="http://www.w3.org/1999/xlink" x="0px" y="0px"
	 viewBox="0 0 480 480" style="enable-background:new 0 0 480 480;" xml:space="preserve">
<path style="fill:#68C9BA;" d="M8,392c0,17.672,14.328,32,32,32h16h64h240h64h16c17.672,0,32-14.328,32-32V104H8V392z M40,200h400
	v192H40V200z"/>
<g>
	<path style="fill:#58B7A0;" d="M56,456c0,8.84,7.16,16,16,16h32c8.84,0,16-7.16,16-16v-32H56V456z"/>
	<path style="fill:#58B7A0;" d="M360,456c0,8.84,7.16,16,16,16h32c8.84,0,16-7.16,16-16v-32h-64V456z"/>
	<path style="fill:#58B7A0;" d="M440,8H40C22.328,8,8,22.328,8,40v64h464V40C472,22.328,457.672,8,440,8z M264,72h-96V40h96V72z
		 M328,72c-8.84,0-16-7.16-16-16s7.16-16,16-16s16,7.16,16,16S336.84,72,328,72z M400,72c-8.84,0-16-7.16-16-16s7.16-16,16-16
		s16,7.16,16,16S408.84,72,400,72z"/>
</g>
<g>
	<path style="fill:#EFE5D3;" d="M440,200H40v192h400V200z M272,360h-64h-64v-32c0-26.512,21.488-48,48-48h16
		c0-13.256,10.744-24,24-24h16c13.256,0,24,10.744,24,24h16c26.512,0,48,21.488,48,48v32H272z"/>
	<circle style="fill:#EFE5D3;" cx="400" cy="56" r="16"/>
	<circle style="fill:#EFE5D3;" cx="328" cy="56" r="16"/>
</g>
<g>
	<rect x="168" y="40" style="fill:#F7BA21;" width="96" height="32"/>
	<path style="fill:#F7BA21;" d="M288,280h-16c0-13.256-10.744-24-24-24h-16c-13.256,0-24,10.744-24,24h-16
		c-26.512,0-48,21.488-48,48v32h64h64h64v-32C336,301.488,314.512,280,288,280z"/>
</g>
<g>
	<path style="fill:#353535;" d="M440,0H40C17.944,0,0,17.944,0,40v64v288c0,22.056,17.944,40,40,40h8v24c0,13.232,10.768,24,24,24
		h32c13.232,0,24-10.768,24-24v-24h224v24c0,13.232,10.768,24,24,24h32c13.232,0,24-10.768,24-24v-24h8c22.056,0,40-17.944,40-40
		V104V40C480,17.944,462.056,0,440,0z M16,40c0-13.232,10.768-24,24-24h400c13.232,0,24,10.768,24,24v56H16V40z M112,456
		c0,4.408-3.592,8-8,8H72c-4.408,0-8-3.592-8-8v-24h48V456z M416,456c0,4.408-3.592,8-8,8h-32c-4.408,0-8-3.592-8-8v-24h48V456z
		 M464,392c0,13.232-10.768,24-24,24h-16h-64H120H56H40c-13.232,0-24-10.768-24-24V112h448V392z"/>
	<path style="fill:#353535;" d="M40,400h400c4.416,0,8-3.584,8-8V200c0-4.416-3.584-8-8-8H40c-4.416,0-8,3.584-8,8v192
		C32,396.416,35.584,400,40,400z M48,208h384v176H48V208z"/>
	<polygon style="fill:#353535;" points="56,160 424,160 424,176 440,176 440,128 424,128 424,144 56,144 56,128 40,128 40,176 
		56,176 	"/>
	<path style="fill:#353535;" d="M400,32c-13.232,0-24,10.768-24,24s10.768,24,24,24s24-10.768,24-24S413.232,32,400,32z M400,64
		c-4.408,0-8-3.592-8-8s3.592-8,8-8s8,3.592,8,8S404.408,64,400,64z"/>
	<path style="fill:#353535;" d="M328,32c-13.232,0-24,10.768-24,24s10.768,24,24,24s24-10.768,24-24S341.232,32,328,32z M328,64
		c-4.408,0-8-3.592-8-8s3.592-8,8-8s8,3.592,8,8S332.408,64,328,64z"/>
	<rect x="48" y="48" style="fill:#353535;" width="88" height="16"/>
	<path style="fill:#353535;" d="M264,32h-96c-4.416,0-8,3.584-8,8v32c0,4.416,3.584,8,8,8h96c4.416,0,8-3.584,8-8V40
		C272,35.584,268.416,32,264,32z M256,64h-80V48h80V64z"/>
	<path style="fill:#353535;" d="M344,328c0-30.88-25.12-56-56-56h-9.136c-3.576-13.76-16-24-30.864-24h-16
		c-14.864,0-27.288,10.24-30.864,24H192c-30.88,0-56,25.12-56,56v24H80v16h64h64h64h64h64v-16h-56V328z M152,328
		c0-22.056,17.944-40,40-40h8v64h-48V328z M216,280c0-8.824,7.176-16,16-16h16c8.824,0,16,7.176,16,16v72h-48V280z M280,352v-64h8
		c22.056,0,40,17.944,40,40v24H280z"/>
	<path style="fill:#353535;" d="M94.784,291.76c-2.96-4.72-7.768-14.536-6.808-27.152c0.688-9.024,4.072-16.04,6.784-20.336
		l-13.52-8.544c-5.288,8.36-8.472,17.928-9.216,27.664c-1.312,17.168,5.2,30.456,9.192,36.848L94.784,291.76z"/>
	<path style="fill:#353535;" d="M142.784,275.76c-2.96-4.72-7.768-14.536-6.808-27.152c0.688-9.024,4.072-16.04,6.784-20.336
		l-13.52-8.544c-5.288,8.36-8.472,17.928-9.216,27.664c-1.312,17.168,5.2,30.456,9.192,36.848L142.784,275.76z"/>
	<path style="fill:#353535;" d="M406.76,235.728l-13.52,8.544c2.712,4.296,6.096,11.312,6.784,20.336
		c0.96,12.616-3.848,22.432-6.808,27.152l13.568,8.488c3.992-6.392,10.496-19.672,9.192-36.848
		C415.232,253.656,412.048,244.088,406.76,235.728z"/>
	<path style="fill:#353535;" d="M358.784,284.24c3.992-6.392,10.496-19.672,9.192-36.848c-0.744-9.736-3.928-19.304-9.216-27.664
		l-13.52,8.544c2.712,4.296,6.096,11.312,6.784,20.336c0.96,12.616-3.848,22.432-6.808,27.152L358.784,284.24z"/>
</g>
<g>
</g>
<g>
</g>
<g>
</g>
<g>
</g>
<g>
</g>
<g>
</g>
<g>
</g>
<g>
</g>
<g>
</g>
<g>
</g>
<g>
</g>
<g>
</g>
<g>
</g>
<g>
</g>
<g>
</g>
</svg>
