<?xml version="1.0" encoding="iso-8859-1"?>
<!-- Generator: Adobe Illustrator 19.0.0, SVG Export Plug-In . SVG Version: 6.00 Build 0)  -->
<svg version="1.1" id="Layer_1" xmlns="http://www.w3.org/2000/svg" xmlns:xlink="http://www.w3.org/1999/xlink" x="0px" y="0px"
	 viewBox="0 0 512 512" style="enable-background:new 0 0 512 512;" xml:space="preserve">
<g>
	<g>
		<path d="M501.801,10.199H10.199C4.567,10.199,0,14.766,0,20.398v471.203c0,5.632,4.567,10.199,10.199,10.199h491.602
			c5.632,0,10.199-4.567,10.199-10.199V20.398C512,14.766,507.433,10.199,501.801,10.199z M491.602,481.402H20.398v-30.598h471.203
			V481.402z M491.602,430.406H20.398V167.267h471.203V430.406z M491.602,146.869H20.398V124.43h471.203V146.869z M491.602,104.032
			H20.398V30.598h471.203V104.032z"/>
	</g>
</g>
<g>
	<g>
		<path d="M105.562,39.777c-15.185,0-27.538,12.353-27.538,27.538s12.353,27.538,27.538,27.538S133.1,82.499,133.1,67.315
			S120.746,39.777,105.562,39.777z M105.562,74.454c-3.936,0-7.139-3.204-7.139-7.139c0-3.936,3.204-7.139,7.139-7.139
			c3.936,0,7.139,3.204,7.139,7.139C112.701,71.251,109.498,74.454,105.562,74.454z"/>
	</g>
</g>
<g>
	<g>
		<path d="M205.514,39.777c-15.185,0-27.538,12.353-27.538,27.538s12.353,27.538,27.538,27.538
			c15.185,0,27.538-12.353,27.538-27.538S220.699,39.777,205.514,39.777z M205.514,74.454c-3.936,0-7.139-3.204-7.139-7.139
			c0-3.936,3.204-7.139,7.139-7.139c3.936,0,7.139,3.204,7.139,7.139C212.653,71.251,209.45,74.454,205.514,74.454z"/>
	</g>
</g>
<g>
	<g>
		<path d="M306.486,39.777c-15.185,0-27.538,12.353-27.538,27.538s12.353,27.538,27.538,27.538s27.538-12.353,27.538-27.538
			S321.671,39.777,306.486,39.777z M306.486,74.454c-3.936,0-7.139-3.204-7.139-7.139c0-3.936,3.204-7.139,7.139-7.139
			c3.936,0,7.139,3.204,7.139,7.139C313.625,71.251,310.422,74.454,306.486,74.454z"/>
	</g>
</g>
<g>
	<g>
		<path d="M406.438,39.777c-15.185,0-27.538,12.353-27.538,27.538s12.353,27.538,27.538,27.538
			c15.185,0,27.538-12.353,27.538-27.538S421.623,39.777,406.438,39.777z M406.438,74.454c-3.936,0-7.139-3.204-7.139-7.139
			c0-3.936,3.204-7.139,7.139-7.139c3.936,0,7.139,3.204,7.139,7.139C413.578,71.251,410.374,74.454,406.438,74.454z"/>
	</g>
</g>
<g>
	<g>
		<path d="M329.434,182.566H182.566c-5.632,0-10.199,4.567-10.199,10.199s4.567,10.199,10.199,10.199h146.869
			c5.632,0,10.199-4.567,10.199-10.199S335.066,182.566,329.434,182.566z"/>
	</g>
</g>
<g>
	<g>
		<path d="M91.793,396.749H44.877c-5.632,0-10.199,4.567-10.199,10.199c0,5.632,4.567,10.199,10.199,10.199h46.916
			c5.632,0,10.199-4.567,10.199-10.199C101.992,401.316,97.425,396.749,91.793,396.749z"/>
	</g>
</g>
<g>
	<g>
		<path d="M128.51,396.749h-6.12c-5.632,0-10.199,4.567-10.199,10.199c0,5.632,4.567,10.199,10.199,10.199h6.12
			c5.632,0,10.199-4.567,10.199-10.199C138.709,401.316,134.142,396.749,128.51,396.749z"/>
	</g>
</g>
<g>
</g>
<g>
</g>
<g>
</g>
<g>
</g>
<g>
</g>
<g>
</g>
<g>
</g>
<g>
</g>
<g>
</g>
<g>
</g>
<g>
</g>
<g>
</g>
<g>
</g>
<g>
</g>
<g>
</g>
</svg>
