<svg height="512pt" viewBox="0 0 512 512.00031" width="512pt" xmlns="http://www.w3.org/2000/svg"><path d="m500.757812 261.613281c.003907 138.71875-111.621093 250.367188-250.339843 250.386719-35.980469.003906-70.183594-7.589844-101.105469-21.25-2.242188-.992188-4.152344-2.601562-5.597656-4.582031-24.394532-33.453125-56.875-60.625-94.570313-78.644531-2.210937-1.058594-4.140625-2.636719-5.523437-4.660157-28.015625-40.933593-44.199219-90.605469-43.605469-144.089843 1.546875-139.066407 115.074219-249.558594 254.136719-247.503907 136.539062 2.019531 246.601562 113.328125 246.605468 250.34375zm0 0" fill="#0ed1b2"/><path d="m119.085938 325.785156 97.867187 97.867188-67.261719 67.261718c-43.417968-19.09375-80.390625-50.148437-106.726562-89.007812zm0 0" fill="#ffbfab"/><path d="m138.660156 345.359375 78.292969 78.292969-67.261719 67.261718c-34.789062-15.300781-65.433594-38.277343-89.785156-66.796874zm0 0" fill="#ffdfcf"/><path d="m492.050781 194.039062c3.652344 1.695313 6.9375 3.972657 9.734375 6.773438 15.363282 15.363281 13.140625 42.484375-4.957031 60.585938l-108.855469 108.851562c-18.097656 18.101562-45.222656 20.320312-60.582031 4.957031-2.800781-2.796875-5.078125-6.082031-6.773437-9.734375-16.75-36.085937-47.921876-59.027344-79.535157-90.640625-30.777343-30.78125-58.296875-67.09375-93.386719-83.796875-1.167968-.554687-2.339843-1.105468-3.507812-1.644531-3.226562-1.492187-6.121094-3.507813-8.59375-5.980469-13.558594-13.558594-11.601562-37.503906 4.375-53.476562l116.539062-116.542969c15.976563-15.976563 39.921876-17.933594 53.480469-4.375 2.472657 2.46875 4.492188 5.363281 5.980469 8.59375 16.757812 36.308594 41.269531 71.851563 73.074219 103.652344 31.617187 31.617187 66.921875 56.027343 103.007812 72.777343zm0 0" fill="#f5c02c"/><path d="m496.828125 261.394531-42.527344 42.53125c-5.382812-6.425781-13.464843-10.511719-22.5-10.511719-16.207031 0-29.34375 13.136719-29.34375 29.339844 0 6.640625 1.484375 13.410156 5.933594 17.679688 3.359375 3.226562-.59375 5.628906-1.953125 6.222656-15.640625 6.820312-33.078125 4.96875-44.273438-6.222656-2.796874-2.800782-5.078124-6.082032-6.773437-9.734375-16.75-36.085938-41.160156-71.394531-72.773437-103.007813-9.753907-9.753906-19.859376-18.8125-30.230469-27.179687 7.921875-5.253907 13.144531-14.246094 13.144531-24.460938 0-16.207031-13.136719-29.34375-29.339844-29.34375-13.976562 0-25.660156 9.773438-28.613281 22.855469-9.449219-5.515625-19.003906-10.511719-28.617187-14.945312-3.226563-1.492188-6.121094-3.507813-8.59375-5.980469-13.558594-13.558594-11.601563-37.5 4.375-53.476563l81.765624-81.765625c15.976563-15.976562 39.917969-17.9375 53.480469-4.375 2.46875 2.46875 4.488281 5.363281 5.976563 8.589844 3.503906 7.589844 7.367187 15.144531 11.542968 22.640625-7.613281 2.675781-13.074218 9.910156-13.074218 18.433594 0 10.804687 8.757812 19.5625 19.558594 19.5625 5.414062 0 10.308593-2.199219 13.851562-5.75 0 0 0 0-.003906 0 11.976562 16.910156 25.714844 33.285156 41.199218 48.769531 31.617188 31.617187 66.921876 56.027344 103.011719 72.777344 3.652344 1.695312 6.933594 3.972656 9.730469 6.773437 15.367188 15.355469 13.148438 42.480469-4.953125 60.578125zm-231.296875-173.371093c0-10.800782-8.757812-19.558594-19.558594-19.558594-10.804687 0-19.5625 8.757812-19.5625 19.558594 0 10.804687 8.757813 19.5625 19.5625 19.5625 10.800782 0 19.558594-8.757813 19.558594-19.5625zm136.929688 97.804687c0-16.203125-13.136719-29.339844-29.34375-29.339844-16.203126 0-29.339844 13.136719-29.339844 29.339844 0 16.207031 13.136718 29.34375 29.339844 29.34375 16.203124 0 29.34375-13.140625 29.34375-29.34375zm68.460937 29.34375c0-10.804687-8.757813-19.5625-19.5625-19.5625-10.800781 0-19.558594 8.757813-19.558594 19.5625 0 10.800781 8.757813 19.558594 19.558594 19.558594 10.804687 0 19.5625-8.757813 19.5625-19.558594zm0 0" fill="#fdf061"/><path d="m400.03125 277.753906-71.125 71.125c-11.457031 11.457032-25.125 20.46875-40.167969 26.488282-15.046875 6.019531-28.714843 15.03125-40.171875 26.488281l-30.144531 30.144531c4.867187 4.863281 5.019531 12.644531.484375 17.710938-.015625-.003907-.027344-.007813-.042969-.007813-.15625.171875-.300781.347656-.464843.511719-5.039063 5.039062-13.207032 5.039062-18.242188 0l-73.390625-73.386719-36.042969-36.046875c-5.039062-5.039062-5.039062-13.207031 0-18.242188 5.035156-5.039062 13.203125-5.039062 18.242188 0l29.46875-29.46875c5.925781-5.925781 9.253906-13.964843 9.253906-22.347656v-79.664062c17.910156 8.527344 35.609375 18.933594 52.738281 31.179687l4.203125-4.203125 31.890625-31.886718 60.453125-60.453126c8.804688-8.808593 23.082032-8.808593 31.890625 0 8.804688 8.804688 8.804688 23.082032 0 31.886719l11.957031-11.957031c8.808594-8.804688 23.085938-8.804688 31.890626 0 8.804687 8.804688 8.804687 23.082031 0 31.890625l-24.464844 24.464844c8.804687-8.804688 23.082031-8.804688 31.886718 0 8.808594 8.808593 8.808594 23.085937 0 31.890625l-11.992187 11.996094c8.804687-8.808594 23.082031-8.808594 31.890625 0 8.804688 8.804687 8.804688 23.082031 0 31.886718zm0 0" fill="#fd3980"/><path d="m257.421875 198.332031-34.09375 34.089844c-4.570313 4.570313-11.976563 4.570313-16.542969 0-4.570312-4.566406-4.570312-11.972656 0-16.542969l90.1875-90.1875c8.804688-8.804687 23.082032-8.804687 31.886719 0 .703125.703125 1.34375 1.441406 1.933594 2.207032-2.976563 1.09375-5.769531 2.828124-8.15625 5.214843zm109.265625-45.476562c2.390625-2.386719 4.917969-4.023438 7.894531-5.117188-.589843-.765625-3.046875-3.597656-3.78125-4.167969-8.84375-6.890624-21.644531-6.269531-29.777343 1.863282l-102.148438 102.148437c-4.566406 4.566407-4.566406 11.972657 0 16.542969 4.570312 4.566406 11.976562 4.566406 16.546875 0l46.050781-46.050781zm33.386719 92.660156c-8.808594-8.804687-23.085938-8.804687-31.890625 0l-65.6875 65.6875c-4.566406 4.566406-4.566406 11.976563 0 16.542969 4.570312 4.570312 11.976562 4.570312 16.546875 0l74.804687-74.804688c2.390625-2.390625 5.179688-4.125 8.15625-5.21875-.589844-.765625-1.230468-1.503906-1.929687-2.207031zm-26.332031-36.320313c2.390624-2.390624 5.179687-4.125 8.15625-5.21875-.589844-.765624-1.230469-1.503906-1.929688-2.207031-8.808594-8.804687-23.085938-8.804687-31.890625 0l-77.507813 77.507813c-4.566406 4.566406-4.566406 11.972656 0 16.542968 4.570313 4.570313 11.976563 4.570313 16.546876 0zm-224.617188 133.933594c-7.636719-7.640625-7.636719-20.027344 0-27.664062l10.207031-10.210938c5.929688-5.925781 9.257813-13.964844 9.257813-22.347656v-80.96875c-6.921875-3.914062-13.894532-7.542969-20.902344-10.878906v79.664062c0 8.382813-3.328125 16.421875-9.257812 22.347656l-29.46875 29.46875c-5.09375-5.09375-13.386719-5.039062-18.410157.171876-4.929687 5.113281-4.550781 13.351562.472657 18.375l13.378906 13.378906c-5.09375-5.09375-5.035156-13.390625.171875-18.414063 5.113281-4.929687 13.351562-4.550781 18.375.472657l66.101562 66.101562c2.703125 2.703125 7.082031 2.703125 9.785157 0 3.609374 0 5.421874-4.367188 2.867187-6.921875zm0 0" fill="#e30048"/><path d="m280.289062 418.546875 24.863282-32.230469c1.066406-1.382812 3.15625-1.382812 4.226562 0l24.859375 32.230469c10.464844 13.5625 9.230469 32.785156-2.882812 44.894531-13.304688 13.304688-34.875 13.304688-48.179688 0-12.113281-12.109375-13.347656-31.332031-2.886719-44.894531zm0 0" fill="#d3f1f5"/><path d="m334.238281 418.546875c10.464844 13.5625 9.230469 32.785156-2.882812 44.894531-.644531.644532-1.304688 1.253906-1.984375 1.835938-10.734375 2.074218-22.273438-1.046875-30.582032-9.355469-12.113281-12.113281-13.347656-31.335937-2.886718-44.898437l16.269531-21.085938zm0 0" fill="#fff5f5"/></svg>